<svg xmlns="http://www.w3.org/2000/svg" width="240" height="240" viewBox="0 0 120 120" fill="none">
  <title>SK-KazAlem</title>
  
  <circle cx="60" cy="60" r="44" fill="#C8823C" opacity="0.1"></circle>
  <g stroke="#C8823C" stroke-width="1.2" opacity="0.4" fill="none">
    <circle cx="60" cy="60" r="44"></circle>
    <ellipse cx="60" cy="60" rx="44" ry="18"></ellipse>
    <ellipse cx="60" cy="60" rx="18" ry="44"></ellipse>
    <line x1="16" y1="60" x2="104" y2="60"></line>
  </g>
  
  <line x1="60" y1="32" x2="60" y2="88" stroke="#C8823C" stroke-width="1.5" opacity="0.55"></line>
  
  <g fill="#C8823C">
    <rect x="22" y="34" width="20" height="6"></rect>
    <rect x="22" y="34" width="6" height="16"></rect>
    <rect x="22" y="57" width="20" height="6"></rect>
    <rect x="36" y="57" width="6" height="23"></rect>
    <rect x="22" y="74" width="20" height="6"></rect>
  </g>
  
  <g fill="#C8823C">
    <rect x="72" y="34" width="6" height="46"></rect>
    <polygon points="78,55 93,34 100,34 85,55"></polygon>
    <polygon points="78,59 93,80 100,80 85,59"></polygon>
  </g>
</svg>